<?xml version="1.0" encoding="utf-8"?>
<!-- Generator: Adobe Illustrator 23.0.5, SVG Export Plug-In . SVG Version: 6.00 Build 0)  -->
<svg version="1.1" id="Layer_1" xmlns="http://www.w3.org/2000/svg" xmlns:xlink="http://www.w3.org/1999/xlink" x="0px" y="0px"
	 viewBox="0 0 921.6 2002.6" style="enable-background:new 0 0 921.6 2002.6;" xml:space="preserve">
<style type="text/css">
	.st0{opacity:0.15;fill:none;stroke:#BFBDC6;stroke-miterlimit:10;enable-background:new    ;}
</style>
<image style="overflow:visible;enable-background:new    ;" width="3840" height="8344" xlink:href="C:\Users\pminp\Downloads\1920.png"  transform="matrix(0.2401 0 0 0.2401 1547 -5.859375e-05)">
</image>
<path class="st0" d="M-27.8,213.4c36.3-27.8,73-55.9,114.8-74.6s89.8-27.2,133.7-14.3s82.1,50.2,87.2,95.7
	c4.3,38-14.3,75.6-40.3,103.6s-59,48.4-90.5,70c-19.1,13-38.2,27-51.3,46s-19.3,44.3-10.4,65.6c11.5,27.6,43.6,40.3,73.2,44.5
	c70.2,9.9,140.7-11.7,207.3-36s133.6-52,204.4-54.9s148,24.9,182.1,87c48.5,88.3-19.4,194-95.3,241.8
	c-53.5,33.6-116.1,49.5-178.4,60s-125.5,16.3-186.6,32.1c-27.4,7.1-55,16.6-76.3,35.1c-21.3,18.6-35.1,48-28.3,75.4
	c6.7,26.6,30.1,45,45.1,67.9c31.6,48.5,18.8,120.5-27.4,155.2c-46.3,34.7-119,26.8-156.7-17c-22.4-26.1-32-60.4-47.5-91.1
	s-41.9-60.6-76.2-62c-32.1-1.3-59.3,22.4-81.7,45.5"/>
<path class="st0" d="M1026.7,688.3c-4.8,61.3-36.6,119.9-85.3,157.4c-48.7,37.5-113.5,53.3-174,42.3c-36.2-6.6-70-22-105.3-32.4
	C626.9,845.2,588,840,554,853.9c-54.9,22.4-80.5,94.6-57.3,149.1c23.3,54.5,87.6,85.9,146.1,77c45.5-7,88.8-34.8,134.1-27.1
	c56.8,9.7,91.1,78.1,75.3,133.5c-15.9,55.4-70.5,93.8-127.3,103.2s-115.3-5.7-168.1-28.7c-39.8-17.3-81.5-39.6-124.2-31.7
	c-45.5,8.4-77.4,48.4-104.9,85.6c-43.1,58.2-86.2,116.3-129.4,174.5c-24.2,32.7-59.3,69.4-98.4,58.1c-31.8-9.2-46.5-46.4-48.1-79.5
	c-1.9-40.5,8.8-80.5,9.6-121.1c0.8-40.5-11.4-85.5-46-106.5c-36.9-22.3-91.6-4.8-108.7,34.7"/>
<path class="st0" d="M-10.7,1640c19,114.5,113,212.9,226.6,237.1c51.6,11,109.7,6.3,150.6-27c49.2-40,61.7-110.9,54.8-174
	s-29.6-123.6-36.9-186.6c-4.6-39.9-0.5-86,30.8-111.2c26.4-21.3,65.8-20.6,96.2-5.6c30.5,15,53.4,41.8,72.4,69.9
	s35.2,58.3,56.9,84.4c24.4,29.4,60.5,54.4,98.1,48.1c45.9-7.7,71.4-56,90-98.6c6.1-14,12.4-28.2,22.9-39.3
	c10.5-11.1,26.1-18.5,41-15.1c14,3.2,24.2,14.8,33.5,25.8c28.3,33.7,56.6,67.5,84.8,101.2"/>
<path class="st0" d="M1014.8,1767.8c-22.4-36-59.1-62.9-100.3-73.3c-41.1-10.4-86.2-4.3-123.1,16.7c-39,22.2-67.2,59-92.8,95.8
	s-50.4,75.3-85.4,103.3s-83.2,44.2-125.4,29"/>
<path class="st0" d="M-46.1,762.7c27.7,12.6,57.2,25.5,87.4,22.1c30.3-3.4,60.1-30,55.3-60.1c-4.2-26.5-31.3-42.4-45.7-65
	c-14.5-22.7-15.6-51.4-11.7-78s12.4-52.4,15.7-79c3.3-26.7,0.7-55.6-15.3-77.1c-16-21.6-48.4-32.3-71-17.8"/>
<path class="st0" d="M954,498.5c-12.5-63.6-57.4-118-113.2-150.8s-121.7-45.6-186.4-46.3c-64.8-0.6-129,10.4-192.7,22.4
	c-37.3,7.1-80.5,13.1-109.3-11.6c-22.9-19.6-28.8-54.5-18.9-83c9.9-28.5,33.1-50.8,59.3-65.7c63.1-35.8,141.6-32.1,211.7-13.3
	s135.9,51.1,205.8,70.6s148,25,212.3-8.7"/>
</svg>
