<?xml version="1.0" encoding="utf-8"?>
<!-- Generator: Adobe Illustrator 23.0.5, SVG Export Plug-In . SVG Version: 6.00 Build 0)  -->
<svg version="1.1" id="Layer_1" xmlns="http://www.w3.org/2000/svg" xmlns:xlink="http://www.w3.org/1999/xlink" x="0px" y="0px"
	 viewBox="0 0 508 508" style="enable-background:new 0 0 508 508;" xml:space="preserve">
<style type="text/css">
	.st0{fill:#FFFFFF;}
</style>
<path class="st0" d="M447,390.3v70.1H277.1v-70.1h36.3v-148H196.6v148h42.6v70.3H63.7v-70.1h36.3v-148h-39v-70.3h39v-12
	c0-94.6,82.6-107,127.3-107c11.5,0,23,0.7,34.3,2.1v75.8c0,0-7.3-1.6-23.3-1.6c-14.1,0-41.6,0.5-41.6,28v14.1h213.9v218.6H447z"/>
<ellipse transform="matrix(0.1602 -0.9871 0.9871 0.1602 210.7354 436.3224)" class="st0" cx="361.8" cy="94.3" rx="46.8" ry="46.8"/>
</svg>
