<?xml version="1.0" encoding="utf-8"?>
<!-- Generator: Adobe Illustrator 23.0.5, SVG Export Plug-In . SVG Version: 6.00 Build 0)  -->
<svg version="1.1" id="Layer_1" xmlns="http://www.w3.org/2000/svg" xmlns:xlink="http://www.w3.org/1999/xlink" x="0px" y="0px"
	 viewBox="0 0 4238.5 1000" style="enable-background:new 0 0 4238.5 1000;" xml:space="preserve">
<style type="text/css">
	.st0{fill:#5B38E3;}
</style>
<g>
	<title>logo</title>
	<path class="st0" d="M1.4,55.8L1.4,55.8c0,30.8,25,55.8,55.8,55.8h775.4c30.8,0,55.8,25,55.8,55.8v221.7c0,30.8-25,55.8-55.8,55.8
		H667.4H555.8h-221h0c-61.6,0-111.6,50-111.6,111.6v276.1c0,30.8-25,55.8-55.8,55.8h0c-30.8,0-55.8-25-55.8-55.8V390.2
		c0-30.8,25-55.8,55.8-55.8h565.1c30.8,0,55.8-25,55.8-55.8v0c0-30.8-25-55.8-55.8-55.8H111.6C50,222.8,0,272.8,0,334.4l0,554
		C0,950,50,1000,111.6,1000h111.6h0c61.6,0,111.6-50,111.6-111.6V612.3c0-30.8,25-55.8,55.8-55.8H500c30.8,0,55.8,25,55.8,55.8
		v331.9c0,30.8,25,55.8,55.8,55.8h0c30.8,0,55.8-25,55.8-55.8V612.3c0-30.8,25-55.8,55.8-55.8h109.4c30.8,0,55.8,25,55.8,55.8v331.9
		c0,30.8,25,55.8,55.8,55.8h0c30.8,0,55.8-25,55.8-55.8V556.5V444.9V111.6C1000,50,950,0,888.4,0H57.2C26.4,0,1.4,25,1.4,55.8z"/>
	<g>
		<path class="st0" d="M1264.4,284v165.2h-83.8V34.4h152.8c32.1,0,59.4,5.6,82,16.9c22.6,11.3,39.5,26.4,50.8,45.2
			c11.3,18.8,16.9,39.7,16.9,62.7c0,20.2-4.9,39.7-14.6,58.5c-9.7,18.8-25.8,34.6-48.1,47.3c-22.4,12.7-51.4,19-87.1,19H1264.4z
			 M1381.5,203.5c11.1-10.9,16.6-25.7,16.6-44.3c0-18.6-5.6-33.4-16.6-44.3c-11.1-10.9-27.1-16.3-48.1-16.3h-68.9v121.2h68.9
			C1354.4,219.8,1370.4,214.4,1381.5,203.5z"/>
		<path class="st0" d="M1738.1,130.1c18.2,9.9,32.9,23.6,44,41V120h83.2v329.3h-83.2V394c-11.5,18.6-26.3,33.3-44.3,44
			c-18,10.7-38.7,16-62.1,16c-28.1,0-53.8-7.2-77-21.7c-23.2-14.5-41.6-34.6-55.3-60.3c-13.7-25.8-20.5-55.1-20.5-88
			c0-32.9,6.8-62.1,20.5-87.7c13.7-25.6,32.1-45.5,55.3-59.7c23.2-14.3,48.8-21.4,77-21.4C1699.1,115.2,1719.9,120.2,1738.1,130.1z
			 M1652.8,199c-13.3,7.5-24.1,18.5-32.4,33c-8.3,14.5-12.5,31.8-12.5,52s4.2,37.7,12.5,52.6c8.3,14.9,19.1,26.1,32.4,33.6
			c13.3,7.5,27.2,11.3,41.9,11.3c15.1,0,29.2-3.8,42.5-11.3c13.3-7.5,24.1-18.6,32.4-33.3c8.3-14.7,12.5-32.1,12.5-52.3
			c0-20.2-4.2-37.6-12.5-52.3c-8.3-14.7-19.1-25.8-32.4-33.3c-13.3-7.5-27.4-11.3-42.5-11.3C1680.1,187.7,1666.1,191.5,1652.8,199z"
			/>
		<path class="st0" d="M2206.2,131.6c19.2,10.9,34.4,27,45.5,48.1c11.1,21.2,16.6,46.5,16.6,75.8v193.8h-83.2V267.4
			c0-25.8-6.5-45.5-19.6-59.1c-13.1-13.7-30.9-20.5-53.5-20.5c-22.6,0-40.5,6.8-53.8,20.5c-13.3,13.7-19.9,33.4-19.9,59.1v181.9
			h-83.8V120h83.8v49.3c10.3-17.4,24.3-30.8,41.9-40.1c17.6-9.3,37.7-14,60.3-14C2165,115.2,2186.9,120.7,2206.2,131.6z"/>
		<path class="st0" d="M2594,144.3c26.9,19.4,45,47,54.1,82.6h-90.3c-5.2-12.7-13.1-22.7-23.8-30c-10.7-7.3-24.2-11-40.4-11
			c-24.2,0-43.1,8.8-56.8,26.4c-13.7,17.6-20.5,41.7-20.5,72.2c0,30.5,6.8,54.6,20.5,72.2c13.7,17.6,32.6,26.4,56.8,26.4
			c16.6,0,30.1-3.4,40.4-10.1c10.3-6.7,18.2-17.2,23.8-31.5h90.3c-9.5,34.5-27.8,61.8-55,82c-27.1,20.2-60.3,30.3-99.6,30.3
			c-31.3,0-59.2-6.9-83.8-20.8c-24.6-13.9-43.8-33.6-57.7-59.1c-13.9-25.6-20.8-55.4-20.8-89.5c0-34.1,6.9-63.9,20.8-89.5
			c13.9-25.6,33.1-45.3,57.7-59.1c24.6-13.9,52.5-20.8,83.8-20.8C2533.5,115.2,2567,124.9,2594,144.3z"/>
		<path class="st0" d="M2962.8,131.6c19.2,10.9,34.4,27,45.5,48.1c11.1,21.2,16.6,46.5,16.6,75.8v193.8h-83.2V267.4
			c0-25.8-6.5-45.5-19.6-59.1c-13.1-13.7-30.9-20.5-53.5-20.5c-22.6,0-40.5,6.8-53.8,20.5c-13.3,13.7-19.9,33.4-19.9,59.1v181.9
			h-83.8V9.4h83.8v159.9c10.3-17.4,24.3-30.8,41.9-40.1c17.6-9.3,37.7-14,60.3-14C2921.7,115.2,2943.5,120.7,2962.8,131.6z"/>
		<path class="st0" d="M3303,130.1c18.2,9.9,32.9,23.6,44,41V120h83.2v329.3H3347V394c-11.5,18.6-26.3,33.3-44.3,44
			c-18,10.7-38.7,16-62.1,16c-28.1,0-53.8-7.2-77-21.7c-23.2-14.5-41.6-34.6-55.3-60.3c-13.7-25.8-20.5-55.1-20.5-88
			c0-32.9,6.8-62.1,20.5-87.7c13.7-25.6,32.1-45.5,55.3-59.7c23.2-14.3,48.8-21.4,77-21.4C3264,115.2,3284.8,120.2,3303,130.1z
			 M3217.7,199c-13.3,7.5-24.1,18.5-32.4,33c-8.3,14.5-12.5,31.8-12.5,52s4.2,37.7,12.5,52.6c8.3,14.9,19.1,26.1,32.4,33.6
			c13.3,7.5,27.2,11.3,41.9,11.3c15.1,0,29.2-3.8,42.5-11.3c13.3-7.5,24.1-18.6,32.4-33.3c8.3-14.7,12.5-32.1,12.5-52.3
			c0-20.2-4.2-37.6-12.5-52.3c-8.3-14.7-19.1-25.8-32.4-33.3c-13.3-7.5-27.4-11.3-42.5-11.3C3245,187.7,3231,191.5,3217.7,199z"/>
		<path class="st0" d="M3771.1,131.6c19.2,10.9,34.4,27,45.5,48.1c11.1,21.2,16.6,46.5,16.6,75.8v193.8H3750V267.4
			c0-25.8-6.5-45.5-19.6-59.1c-13.1-13.7-30.9-20.5-53.5-20.5c-22.6,0-40.5,6.8-53.8,20.5c-13.3,13.7-19.9,33.4-19.9,59.1v181.9
			h-83.8V120h83.8v49.3c10.3-17.4,24.3-30.8,41.9-40.1c17.6-9.3,37.7-14,60.3-14C3730,115.2,3751.9,120.7,3771.1,131.6z"/>
		<path class="st0" d="M4111.3,130.1c18.2,9.9,32.9,23.6,44,41V120h83.2v329.3h-83.2V394c-11.5,18.6-26.3,33.3-44.3,44
			c-18,10.7-38.7,16-62.1,16c-28.1,0-53.8-7.2-77-21.7c-23.2-14.5-41.6-34.6-55.3-60.3c-13.7-25.8-20.5-55.1-20.5-88
			c0-32.9,6.8-62.1,20.5-87.7c13.7-25.6,32.1-45.5,55.3-59.7c23.2-14.3,48.8-21.4,77-21.4C4072.3,115.2,4093.1,120.2,4111.3,130.1z
			 M4026.1,199c-13.3,7.5-24.1,18.5-32.4,33c-8.3,14.5-12.5,31.8-12.5,52s4.2,37.7,12.5,52.6c8.3,14.9,19.1,26.1,32.4,33.6
			c13.3,7.5,27.2,11.3,41.9,11.3c15.1,0,29.2-3.8,42.5-11.3c13.3-7.5,24.1-18.6,32.4-33.3c8.3-14.7,12.5-32.1,12.5-52.3
			c0-20.2-4.2-37.6-12.5-52.3c-8.3-14.7-19.1-25.8-32.4-33.3c-13.3-7.5-27.4-11.3-42.5-11.3C4053.3,187.7,4039.3,191.5,4026.1,199z"
			/>
		<path class="st0" d="M1632.9,574v414.9h-83.2V726.7l-112.9,262.1h-60l-112.3-260.9v260.9h-83.8V574h93.3l133.1,307.3L1540.2,574
			H1632.9z"/>
		<path class="st0" d="M1914,669.6c18.2,9.9,32.9,23.6,44,41v-51.1h83.2v329.3H1958v-55.3c-11.5,18.6-26.3,33.3-44.3,44
			c-18,10.7-38.7,16-62.1,16c-28.1,0-53.8-7.2-77-21.7c-23.2-14.5-41.6-34.6-55.3-60.3c-13.7-25.8-20.5-55.1-20.5-88
			c0-32.9,6.8-62.1,20.5-87.7c13.7-25.6,32.1-45.5,55.3-59.7c23.2-14.3,48.8-21.4,77-21.4C1875,654.8,1895.8,659.7,1914,669.6z
			 M1828.7,738.6c-13.3,7.5-24.1,18.5-32.4,33c-8.3,14.5-12.5,31.8-12.5,52c0,20.2,4.2,37.7,12.5,52.6c8.3,14.9,19.1,26.1,32.4,33.6
			c13.3,7.5,27.2,11.3,41.9,11.3c15.1,0,29.2-3.8,42.5-11.3c13.3-7.5,24.1-18.6,32.4-33.3c8.3-14.7,12.5-32.1,12.5-52.3
			s-4.2-37.6-12.5-52.3c-8.3-14.7-19.1-25.8-32.4-33.3c-13.3-7.5-27.4-11.3-42.5-11.3C1856,727.3,1842,731.1,1828.7,738.6z"/>
		<path class="st0" d="M2322.4,669.6c18.2,9.9,32.9,23.6,44,41V549h83.2v439.8h-83.2v-55.3c-11.5,18.6-26.3,33.3-44.3,44
			c-18,10.7-38.7,16-62.1,16c-28.1,0-53.8-7.2-77-21.7c-23.2-14.5-41.6-34.6-55.3-60.3c-13.7-25.8-20.5-55.1-20.5-88
			c0-32.9,6.8-62.1,20.5-87.7c13.7-25.6,32.1-45.5,55.3-59.7c23.2-14.3,48.8-21.4,77-21.4C2283.3,654.8,2304.1,659.7,2322.4,669.6z
			 M2237.1,738.6c-13.3,7.5-24.1,18.5-32.4,33c-8.3,14.5-12.5,31.8-12.5,52c0,20.2,4.2,37.7,12.5,52.6c8.3,14.9,19.1,26.1,32.4,33.6
			c13.3,7.5,27.2,11.3,41.9,11.3c15.1,0,29.2-3.8,42.5-11.3c13.3-7.5,24.1-18.6,32.4-33.3c8.3-14.7,12.5-32.1,12.5-52.3
			s-4.2-37.6-12.5-52.3c-8.3-14.7-19.1-25.8-32.4-33.3c-13.3-7.5-27.4-11.3-42.5-11.3C2264.3,727.3,2250.3,731.1,2237.1,738.6z"/>
		<path class="st0" d="M2730.7,669.6c18.2,9.9,32.9,23.6,44,41v-51.1h83.2v329.3h-83.2v-55.3c-11.5,18.6-26.3,33.3-44.3,44
			c-18,10.7-38.7,16-62.1,16c-28.1,0-53.8-7.2-77-21.7c-23.2-14.5-41.6-34.6-55.3-60.3c-13.7-25.8-20.5-55.1-20.5-88
			c0-32.9,6.8-62.1,20.5-87.7c13.7-25.6,32.1-45.5,55.3-59.7c23.2-14.3,48.8-21.4,77-21.4C2691.6,654.8,2712.5,659.7,2730.7,669.6z
			 M2645.4,738.6c-13.3,7.5-24.1,18.5-32.4,33c-8.3,14.5-12.5,31.8-12.5,52c0,20.2,4.2,37.7,12.5,52.6c8.3,14.9,19.1,26.1,32.4,33.6
			c13.3,7.5,27.2,11.3,41.9,11.3c15.1,0,29.2-3.8,42.5-11.3c13.3-7.5,24.1-18.6,32.4-33.3c8.3-14.7,12.5-32.1,12.5-52.3
			s-4.2-37.6-12.5-52.3c-8.3-14.7-19.1-25.8-32.4-33.3c-13.3-7.5-27.4-11.3-42.5-11.3C2672.6,727.3,2658.7,731.1,2645.4,738.6z"/>
		<path class="st0" d="M3070.9,671.4c16.4-11.1,35.2-16.6,56.2-16.6v85.6h-20.8c-25,0-43.8,6.2-56.5,18.7c-12.7,12.5-19,34-19,64.5
			v165.2H2947V659.5h83.8v58.2C3041.1,698,3054.5,682.5,3070.9,671.4z"/>
		<path class="st0" d="M3378.5,669.6c18.2,9.9,32.9,23.6,44,41v-51.1h83.2v329.3h-83.2v-55.3c-11.5,18.6-26.3,33.3-44.3,44
			c-18,10.7-38.7,16-62.1,16c-28.1,0-53.8-7.2-77-21.7c-23.2-14.5-41.6-34.6-55.3-60.3c-13.7-25.8-20.5-55.1-20.5-88
			c0-32.9,6.8-62.1,20.5-87.7c13.7-25.6,32.1-45.5,55.3-59.7c23.2-14.3,48.8-21.4,77-21.4C3339.5,654.8,3360.3,659.7,3378.5,669.6z
			 M3293.2,738.6c-13.3,7.5-24.1,18.5-32.4,33c-8.3,14.5-12.5,31.8-12.5,52c0,20.2,4.2,37.7,12.5,52.6c8.3,14.9,19.1,26.1,32.4,33.6
			c13.3,7.5,27.2,11.3,41.9,11.3c15.1,0,29.2-3.8,42.5-11.3c13.3-7.5,24.1-18.6,32.4-33.3c8.3-14.7,12.5-32.1,12.5-52.3
			s-4.2-37.6-12.5-52.3c-8.3-14.7-19.1-25.8-32.4-33.3c-13.3-7.5-27.4-11.3-42.5-11.3C3320.5,727.3,3306.5,731.1,3293.2,738.6z"/>
	</g>
</g>
</svg>
